<svg width="165" height="143" viewBox="0 0 165 143" fill="none" xmlns="http://www.w3.org/2000/svg">
<path id="collar" d="M68.5 1L63 4.5C81 14 97.6667 7.16667 103 3.5L96.5 1C87.7 5 73.8333 2.66667 68.5 1Z" fill="white" stroke="black"/>
<path id="body" d="M39 49C47.4 39.8 43.1667 19.8333 40 11L62.5 4.5C80.5 14.1 97 7.83333 103 3.5L125.5 10C117.5 30.8 123.167 44 127 48L126.5 137.5C88.5 145.5 52.3333 140.833 39 137.5V49Z" fill="white" stroke="black"/>
<path id="hand" d="M1 25C1 25 29.6667 13.6667 39.5 11.5C42.5 21 46.5 42.1 38.5 50.5C33.7 48.9 21.5 53.8333 16 56.5C8.4 52.1 2.83333 33.6667 1 25Z" fill="white" stroke="black"/>
<path id="hand-cuff" d="M20 55C12.4 50.6 6.83333 32.1667 5 23.5L1 24.5C2.83333 33.1667 8.4 51.6 16 56L20 55Z" fill="white" stroke="black"/>
<path id="hand" d="M163.933 22.5C163.933 22.5 135.067 11.6667 125.233 9.5C122.233 19 116.733 39 126.733 47.5C131.534 45.9 143.432 51.3333 148.933 54C156.533 49.6 162.1 31.1667 163.933 22.5Z" fill="white" stroke="black"/>
<path id="hand-cuff" d="M145 52C153.8 47.5323 157.377 29.8 159.5 21L164 22.5C161.877 31.3 157.8 49.5323 149 54L145 52Z" fill="white" stroke="black"/>
</svg>
