<svg width="164" height="148" viewBox="0 0 164 148" fill="none" xmlns="http://www.w3.org/2000/svg">
<path id="body" d="M38 54.5C46.4 45.3 42.1667 25.3333 39 16.5L61.5 10C79.5 19.6 96 13.3333 102 9L124.5 15.5C116.5 36.3 122.167 49.5 126 53.5L125.5 143C87.5 151 51.3333 146.333 38 143V54.5Z" fill="white" stroke="black"/>
<path id="collar" d="M102 9C85.2 18.6 68.3333 14 62 10L66 1C66.5 1.5 90 2 95.5 1L102 9Z" fill="white" stroke="black"/>
<path id="hand" d="M163.2 28.5C163.2 28.5 134.334 17.6667 124.5 15.5C121.5 25 116 45 126 53.5C130.8 51.9 142.699 57.3333 148.199 60C155.8 55.6 161.367 37.1667 163.2 28.5Z" fill="white" stroke="black"/>
<path id="hand-cuff" d="M144 58C152.8 53.5323 156.377 35.8 158.5 27L163 28.5C160.877 37.3 156.8 55.5323 148 60L144 58Z" fill="white" stroke="black"/>
<path id="hand" d="M1 29.5C1 29.5 29.6667 18.1667 39.5 16C42.5 25.5 46.5 46.6 38.5 55C33.7 53.4 21.5 58.3333 16 61C8.4 56.6 2.83333 38.1667 1 29.5Z" fill="white" stroke="black"/>
<path id="hand-cuff" d="M20 59C12.4 54.6 6.83333 36.6667 5 28L1 29.5C2.83333 38.1667 8.4 56.1 16 60.5L20 59Z" fill="white" stroke="black"/>
</svg>
