<svg width="163" height="149" viewBox="0 0 163 149" fill="none" xmlns="http://www.w3.org/2000/svg">
<path id="body" d="M37 55.5C45.4 46.3 41.1667 26.3333 38 17.5L60.5 10C60.5 10 68.5 28 71 29C73.5 30 77.5 23 77.5 23L78 43H83V23L90.5 30C94 25.1667 101 14.4 101 10L123.5 16.5C115.5 37.3 121.167 50.5 125 54.5L124.5 144C86.5 152 50.3333 147.333 37 144V55.5Z" fill="white" stroke="black"/>
<path id="hand" d="M1 30.5C1 30.5 29.6667 19.1667 39.5 17C42.5 26.5 46.5 47.6 38.5 56C33.7 54.4 21.5 59.3333 16 62C8.4 57.6 2.83333 39.1667 1 30.5Z" fill="white" stroke="black"/>
<path id="hand" d="M161.933 29C161.933 29 133.067 18.1667 123.233 16C120.233 25.5 114.733 45.5 124.733 54C129.534 52.4 141.432 57.8333 146.933 60.5C154.533 56.1 160.1 37.6667 161.933 29Z" fill="white" stroke="black"/>
<path id="hand-cuff" d="M143 58.5C151.8 54.0323 155.377 36.3 157.5 27.5L162 29C159.877 37.8 155.8 56.0323 147 60.5L143 58.5Z" fill="white" stroke="black"/>
<path id="hand-cuff" d="M20 60C12.4 55.6 6.83333 37.6667 5 29L1 30.5C2.83333 39.1667 8.4 57.1 16 61.5L20 60Z" fill="white" stroke="black"/>
<path id="collar" d="M71.5 29.5L78.5 22.5C72.9 18.9 67.5 7.33333 65.5 2L61 10C61.8 17.2 68.3333 26 71.5 29.5Z" fill="white" stroke="black"/>
<path id="collar" d="M90 29.5L83 22.5C88.6 18.9 94 7.33333 96 2L100.5 10C99.7 17.2 93.1667 26 90 29.5Z" fill="white" stroke="black"/>
<path id="collar" d="M91.5 10.5C85.5 8.09997 74.6667 9.49997 70 10.5L66 2C77.6 4.4 90.8333 3 96 2L91.5 10.5Z" fill="white" stroke="black"/>
<path id="collar" d="M83 22.5H78V43.5H83V22.5Z" fill="white" stroke="black"/>
</svg>
