<svg width="164" height="141" viewBox="0 0 164 141" fill="none" xmlns="http://www.w3.org/2000/svg">
<path id="body" d="M38 47.5C46.4 38.3 42.1667 18.3333 39 9.5L61.5 3C86.5 24 96 6.33333 102 2L124.5 8.5C116.5 29.3 122.167 42.5 126 46.5L125.5 136C87.5 144 51.3333 139.333 38 136V47.5Z" fill="white" stroke="black"/>
<path id="hand" d="M1 22.5C1 22.5 29.6667 11.1667 39.5 9C42.5 18.5 46.5 39.6 38.5 48C33.7 46.4 21.5 51.3333 16 54C8.4 49.6 2.83333 31.1667 1 22.5Z" fill="white" stroke="black"/>
<path id="hand-cuff" d="M20 52.5C12.4 48.1 6.83333 29.6667 5 21L1 22C2.83333 30.6667 8.4 49.1 16 53.5L20 52.5Z" fill="white" stroke="black"/>
<path id="hand" d="M162.933 21C162.933 21 134.067 10.1667 124.233 8C121.233 17.5 115.733 37.5 125.733 46C130.534 44.4 142.432 49.8333 147.933 52.5C155.533 48.1 161.1 29.6667 162.933 21Z" fill="white" stroke="black"/>
<path id="hand-cuff" d="M144 50.5C152.8 46.0323 156.377 28.3 158.5 19.5L163 21C160.877 29.8 156.8 48.0323 148 52.5L144 50.5Z" fill="white" stroke="black"/>
<path id="collar" d="M57 4C85 30 100.5 7.5 105.5 2.5L101.5 1C86.3 19 68.5 9.5 61.5 2.5L57 4Z" fill="white" stroke="black"/>
<path id="collar" d="M101.5 1C89.9 6.6 70.3333 4.83333 62 3L67 7C73.1667 8.5 87.4 10.6 95 7L101.5 1Z" fill="white" stroke="black"/>
</svg>
